<?xml version="1.0" standalone="no"?>
<!DOCTYPE svg PUBLIC "-//W3C//DTD SVG 20010904//EN"
 "http://www.w3.org/TR/2001/REC-SVG-20010904/DTD/svg10.dtd">
<svg version="1.0" xmlns="http://www.w3.org/2000/svg"
 width="513.000000pt" height="513.000000pt" viewBox="0 0 513.000000 513.000000"
 preserveAspectRatio="xMidYMid meet">
<metadata>
Created by potrace 1.14, written by Peter Selinger 2001-2017
</metadata>
<g transform="translate(0.000000,513.000000) scale(0.100000,-0.100000)"
fill="#000000" stroke="none">
<path d="M1035 3800 c-258 -48 -478 -163 -661 -345 -181 -180 -292 -382 -350
-641 -25 -110 -26 -347 -2 -474 101 -535 505 -925 1053 -1018 22 -4 108 -7
190 -6 140 0 167 3 325 39 107 24 303 120 414 204 44 33 159 139 257 237 l178
177 -117 116 c-64 64 -169 169 -233 233 l-118 117 -150 -149 c-184 -182 -238
-227 -319 -263 -382 -172 -817 92 -837 508 -11 222 96 422 287 538 206 125
483 107 668 -42 30 -25 363 -351 739 -725 376 -375 689 -687 696 -693 46 -44
185 -133 270 -174 197 -94 324 -123 545 -124 139 0 212 7 303 30 414 105 753
415 890 815 75 218 84 509 23 735 -70 261 -237 507 -455 670 -148 112 -365
209 -516 232 -16 2 -41 7 -55 10 -44 10 -305 11 -361 2 -226 -39 -416 -119
-587 -249 -42 -32 -154 -137 -249 -232 l-172 -173 234 -231 234 -232 175 172
c238 234 328 284 518 291 176 6 326 -54 448 -179 184 -188 220 -490 83 -713
-21 -34 -51 -77 -68 -96 -73 -82 -206 -159 -317 -182 -82 -18 -219 -11 -298
14 -141 44 -147 50 -906 805 -407 405 -746 734 -791 768 -128 96 -253 156
-416 201 -127 36 -142 38 -307 42 -111 2 -168 -1 -245 -15z"/>
</g>
</svg>
